<mxfile host="app.diagrams.net" modified="2024-02-05T23:19:17.603Z" agent="Mozilla/5.0 (Windows NT 10.0; Win64; x64) AppleWebKit/537.36 (KHTML, like Gecko) Chrome/121.0.0.0 Safari/537.36 Edg/121.0.0.0" version="23.1.1" etag="J3PUu6x_BvwmY_vBCh7Q" type="github">
  <diagram name="PÃ¡gina-1" id="LYTyenL5M_XubSDh9pUi">
    <mxGraphModel>
      <root>
        <mxCell id="0" />
        <mxCell id="1" parent="0" />
      </root>
    </mxGraphModel>
  </diagram>
</mxfile>
